<?xml version="1.0" encoding="utf-8"?>
<!-- Svg Vector Icons : http://www.onlinewebfonts.com/icon -->
<!DOCTYPE svg PUBLIC "-//W3C//DTD SVG 1.1//EN" "http://www.w3.org/Graphics/SVG/1.1/DTD/svg11.dtd">
<svg version="1.1" xmlns="http://www.w3.org/2000/svg" xmlns:xlink="http://www.w3.org/1999/xlink" x="0px" y="0px" viewBox="0 0 1000 1000" enable-background="new 0 0 1000 1000" xml:space="preserve" fill="#fe043c">
<metadata> Svg Vector Icons : http://www.onlinewebfonts.com/icon </metadata>
<g><g><path d="M946.2,708.9c0-2.4,0.1-4.8,0.1-7.2c0-116.9-38.6-217.2-111.6-290C763.1,340.2,661,299.4,537.8,292.5v-28.7c0-0.2,0-0.3,0-0.5h26.7c14,0,25.4-11.4,25.4-25.4v-24.8c0-14-11.4-25.4-25.4-25.4H435.6c-14,0-25.4,11.4-25.4,25.4V238c0,14,11.4,25.4,25.4,25.4h26.7c0,0.2,0,0.3,0,0.5v28.7c-121.4,6.9-222.8,47.7-294.9,119c-37.1,36.7-65.8,80.7-85.1,130.8c-18.9,49-28.5,102.6-28.5,159.3c0,2.4,0,4.8,0.1,7.2C29,712.8,10,734.3,10,760.2c0,28.6,23.3,51.9,51.9,51.9h876.1c28.6,0,51.9-23.3,51.9-51.9C990,734.3,971,712.8,946.2,708.9z M434.9,238v-24.8c0-0.4,0.3-0.7,0.7-0.7h128.9c0.4,0,0.7,0.3,0.7,0.7V238c0,0.4-0.3,0.7-0.7,0.7h-49c-1-0.1-2-0.2-3-0.2h-24.8c-1,0-2,0.1-3,0.2h-49C435.2,238.7,434.9,238.4,434.9,238z M486.9,263.9c0-0.2,0.1-0.4,0.2-0.5h25.7c0.1,0.1,0.2,0.3,0.2,0.5v27.7c-4.3-0.1-8.7-0.1-13.1-0.1c-4.4,0-8.7,0-13.1,0.1V263.9z M500,316.2c310.8,0,421.6,199.1,421.6,385.5c0,2.2,0,4.4-0.1,6.6H78.5c0-2.2-0.1-4.4-0.1-6.6C78.4,467.5,243.9,316.2,500,316.2z M938.1,787.5H61.9c-15,0-27.2-12.2-27.2-27.3c0-15,12.2-27.3,27.2-27.3h876.1c15,0,27.3,12.2,27.3,27.3C965.3,775.2,953.1,787.5,938.1,787.5z"/></g><g></g><g></g><g></g><g></g><g></g><g></g><g></g><g></g><g></g><g></g><g></g><g></g><g></g><g></g><g></g></g>
</svg>